<?xml version="1.0" encoding="UTF-8"?>
<!-- Icona Meteo dei Conigli: Coniglio con paracadute -->
<svg xmlns="http://www.w3.org/2000/svg" viewBox="0 0 512 512" width="512" height="512">
  <defs>
    <!-- Gradiente paracadute arancione/rosso -->
    <linearGradient id="parachuteGrad" x1="0%" y1="0%" x2="100%" y2="100%">
      <stop offset="0%" style="stop-color:#FF6B35"/>
      <stop offset="50%" style="stop-color:#F7931E"/>
      <stop offset="100%" style="stop-color:#FF4500"/>
    </linearGradient>
    <linearGradient id="parachuteShine" x1="0%" y1="0%" x2="100%" y2="0%">
      <stop offset="0%" style="stop-color:#FFB347;stop-opacity:0.9"/>
      <stop offset="50%" style="stop-color:#FFD700;stop-opacity:0.7"/>
      <stop offset="100%" style="stop-color:#FF6B35;stop-opacity:0"/>
    </linearGradient>
  </defs>
  
  <!-- Sfondo trasparente (adaptive icon) -->
  
  <!-- === PARACADUTE === -->
  <g>
    <!-- Ombra del paracadute -->
    <ellipse cx="256" cy="135" rx="180" ry="60" fill="#000000" opacity="0.15"/>
    
    <!-- Cupola del paracadute -->
    <path d="M 76 140 Q 76 50 256 40 Q 436 50 436 140 Z" 
          fill="url(#parachuteGrad)" 
          stroke="#C2410C" 
          stroke-width="4"
          stroke-linejoin="round"/>
    
    <!-- Riflesso luce sul paracadute -->
    <path d="M 120 90 Q 180 60 250 65 L 240 90 Q 180 95 130 110 Z" 
          fill="url(#parachuteShine)"/>
    
    <!-- Sezioni del paracadute (linee di divisione) -->
    <path d="M 140 45 Q 145 95 165 140" stroke="#C2410C" stroke-width="3" fill="none"/>
    <path d="M 200 40 Q 210 95 220 140" stroke="#C2410C" stroke-width="3" fill="none"/>
    <path d="M 256 38 Q 256 90 256 140" stroke="#C2410C" stroke-width="3" fill="none"/>
    <path d="M 312 40 Q 302 95 292 140" stroke="#C2410C" stroke-width="3" fill="none"/>
    <path d="M 372 45 Q 367 95 347 140" stroke="#C2410C" stroke-width="3" fill="none"/>
  </g>
  
  <!-- === CORDE DEL PARACADUTE === -->
  <g stroke="#8B4513" stroke-width="3" fill="none" stroke-linecap="round">
    <line x1="140" y1="140" x2="195" y2="250"/>
    <line x1="200" y1="140" x2="210" y2="250"/>
    <line x1="256" y1="140" x2="256" y2="250"/>
    <line x1="312" y1="140" x2="302" y2="250"/>
    <line x1="372" y1="140" x2="317" y2="250"/>
  </g>
  
  <!-- === CONIGLIO === -->
  <g transform="translate(256, 320)">
    <!-- Orecchie lunghe (dietro) -->
    <ellipse cx="-30" cy="-95" rx="18" ry="55" fill="white" stroke="#3D2817" stroke-width="4" transform="rotate(-10, -30, -95)"/>
    <ellipse cx="30" cy="-95" rx="18" ry="55" fill="white" stroke="#3D2817" stroke-width="4" transform="rotate(10, 30, -95)"/>
    <!-- Interno orecchie (rosa) -->
    <ellipse cx="-30" cy="-95" rx="10" ry="42" fill="#FFB6C1" transform="rotate(-10, -30, -95)"/>
    <ellipse cx="30" cy="-95" rx="10" ry="42" fill="#FFB6C1" transform="rotate(10, 30, -95)"/>
    
    <!-- Testa -->
    <ellipse cx="0" cy="-30" rx="65" ry="60" fill="white" stroke="#3D2817" stroke-width="4"/>
    
    <!-- Corpo -->
    <ellipse cx="0" cy="50" rx="60" ry="55" fill="white" stroke="#3D2817" stroke-width="4"/>
    
    <!-- Braccia alzate (che tengono le corde) -->
    <ellipse cx="-55" cy="-15" rx="14" ry="25" fill="white" stroke="#3D2817" stroke-width="3" transform="rotate(-30, -55, -15)"/>
    <ellipse cx="55" cy="-15" rx="14" ry="25" fill="white" stroke="#3D2817" stroke-width="3" transform="rotate(30, 55, -15)"/>
    
    <!-- Zampe -->
    <ellipse cx="-30" cy="105" rx="20" ry="15" fill="white" stroke="#3D2817" stroke-width="3"/>
    <ellipse cx="30" cy="105" rx="20" ry="15" fill="white" stroke="#3D2817" stroke-width="3"/>
    
    <!-- Cuscinetti rosa sotto le zampe -->
    <ellipse cx="-30" cy="115" rx="12" ry="6" fill="#FF9999" opacity="0.7"/>
    <ellipse cx="30" cy="115" rx="12" ry="6" fill="#FF9999" opacity="0.7"/>
    
    <!-- Occhi (neri, grandi e brillanti) -->
    <ellipse cx="-20" cy="-35" rx="9" ry="11" fill="#1A1A1A"/>
    <ellipse cx="20" cy="-35" rx="9" ry="11" fill="#1A1A1A"/>
    <!-- Riflesso occhi -->
    <circle cx="-17" cy="-38" r="3" fill="white"/>
    <circle cx="23" cy="-38" r="3" fill="white"/>
    
    <!-- Guance rosa -->
    <ellipse cx="-35" cy="-20" rx="10" ry="6" fill="#FFB6C1" opacity="0.8"/>
    <ellipse cx="35" cy="-20" rx="10" ry="6" fill="#FFB6C1" opacity="0.8"/>
    
    <!-- Naso -->
    <ellipse cx="0" cy="-18" rx="5" ry="4" fill="#FF6B9D"/>
    
    <!-- Bocca sorridente -->
    <path d="M -8,-10 Q 0,-3 8,-10" stroke="#3D2817" stroke-width="2.5" fill="#FF6B9D" stroke-linecap="round"/>
    <path d="M 0,-10 L 0,-5" stroke="#3D2817" stroke-width="2" stroke-linecap="round"/>
    
    <!-- Baffi -->
    <line x1="-50" y1="-18" x2="-25" y2="-15" stroke="#3D2817" stroke-width="1.5" stroke-linecap="round"/>
    <line x1="-50" y1="-12" x2="-25" y2="-12" stroke="#3D2817" stroke-width="1.5" stroke-linecap="round"/>
    <line x1="50" y1="-18" x2="25" y2="-15" stroke="#3D2817" stroke-width="1.5" stroke-linecap="round"/>
    <line x1="50" y1="-12" x2="25" y2="-12" stroke="#3D2817" stroke-width="1.5" stroke-linecap="round"/>
  </g>
  
  <!-- === TESTO "Meteo dei Conigli" === -->
  <g transform="translate(256, 460)">
    <text x="0" y="0" 
          font-family="Arial Black, Arial, sans-serif" 
          font-size="48" 
          font-weight="900" 
          text-anchor="middle" 
          fill="#FF6B35">
      Meteo dei Conigli
    </text>
  </g>
</svg>
